<?xml version="1.0" encoding="UTF-8"?>
<svg version="1.1" xmlns="http://www.w3.org/2000/svg" width="100" height="88">
<path d="M0 0 C33 0 66 0 100 0 C100 29.04 100 58.08 100 88 C67 88 34 88 0 88 C0 58.96 0 29.92 0 0 Z " fill="#000001" transform="translate(0,0)"/>
<path d="M0 0 C1.74972862 0.00848969 1.74972862 0.00848969 3.5348053 0.01715088 C7.24368112 0.03945916 10.95157466 0.08964793 14.66015625 0.140625 C17.18162663 0.16069705 19.70311222 0.17894658 22.22460938 0.1953125 C28.39095755 0.2393059 34.5567367 0.30616363 40.72265625 0.390625 C39.77547281 1.49848871 38.82788356 2.60600549 37.88012695 3.71337891 C37.35248245 4.3301651 36.82483795 4.94695129 36.28120422 5.58242798 C34.1910056 8.00743573 32.05583578 10.3896596 29.91015625 12.765625 C29.14058594 13.61898438 28.37101562 14.47234375 27.578125 15.3515625 C24.81897016 18.38372845 24.81897016 18.38372845 21.85522461 18.59594727 C20.60362549 18.63260498 19.35202637 18.6692627 18.0625 18.70703125 C17.0658004 18.7382029 17.0658004 18.7382029 16.04896545 18.77000427 C13.91947082 18.83556158 11.78984957 18.89441285 9.66015625 18.953125 C8.21938778 18.99630439 6.77863226 19.03991849 5.33789062 19.08398438 C1.79961585 19.19124893 -1.73880244 19.29249871 -5.27734375 19.390625 C-5.60734375 20.710625 -5.93734375 22.030625 -6.27734375 23.390625 C1.97265625 23.390625 10.22265625 23.390625 18.72265625 23.390625 C14.7829265 31.2700845 9.8884537 38.49530302 1.72265625 42.390625 C-9.16165504 44.99218875 -21.19080087 43.95297907 -32.27734375 43.390625 C-32.27734375 44.380625 -32.27734375 45.370625 -32.27734375 46.390625 C-24.02734375 46.720625 -15.77734375 47.050625 -7.27734375 47.390625 C-9.25734375 49.700625 -11.23734375 52.010625 -13.27734375 54.390625 C-14.00695313 55.41027344 -14.7365625 56.42992187 -15.48828125 57.48046875 C-18.81991706 61.86451659 -21.62105131 65.44609114 -27.26953125 66.234375 C-34.32948762 66.59814829 -39.52854781 65.93618458 -45.27734375 61.390625 C-49.41532195 57.46356316 -51.9860621 53.20130379 -52.578125 47.48828125 C-52.60686113 40.04562435 -51.92619194 35.66273159 -47.15234375 29.765625 C-40.33479328 24.13373548 -33.99790297 22.73521763 -25.27734375 23.390625 C-25.34695312 22.77316406 -25.4165625 22.15570313 -25.48828125 21.51953125 C-25.8890509 15.25034881 -24.79398755 11.56954354 -21.2734375 6.3984375 C-14.79920736 -0.11380182 -8.77546361 -0.16130137 0 0 Z " fill="#949495" transform="translate(55.27734375,14.609375)"/>
<path d="M0 0 C1.74972862 0.00848969 1.74972862 0.00848969 3.5348053 0.01715088 C7.24368112 0.03945916 10.95157466 0.08964793 14.66015625 0.140625 C17.18162663 0.16069705 19.70311222 0.17894658 22.22460938 0.1953125 C28.39095755 0.2393059 34.5567367 0.30616363 40.72265625 0.390625 C39.77547281 1.49848871 38.82788356 2.60600549 37.88012695 3.71337891 C37.35248245 4.3301651 36.82483795 4.94695129 36.28120422 5.58242798 C34.1910056 8.00743573 32.05583578 10.3896596 29.91015625 12.765625 C28.75580078 14.04566406 28.75580078 14.04566406 27.578125 15.3515625 C24.81897016 18.38372845 24.81897016 18.38372845 21.85522461 18.59594727 C20.60362549 18.63260498 19.35202637 18.6692627 18.0625 18.70703125 C17.3980336 18.72781235 16.7335672 18.74859344 16.04896545 18.77000427 C13.91947082 18.83556158 11.78984957 18.89441285 9.66015625 18.953125 C8.21938778 18.99630439 6.77863226 19.03991849 5.33789062 19.08398438 C1.79961585 19.19124893 -1.73880244 19.29249871 -5.27734375 19.390625 C-5.60734375 20.710625 -5.93734375 22.030625 -6.27734375 23.390625 C-12.54734375 23.390625 -18.81734375 23.390625 -25.27734375 23.390625 C-25.87980726 16.26147348 -25.30286973 12.31700734 -21.2734375 6.3984375 C-14.79920736 -0.11380182 -8.77546361 -0.16130137 0 0 Z " fill="#114FC6" transform="translate(55.27734375,14.609375)"/>
<path d="M0 0 C0 0.99 0 1.98 0 3 C8.25 3.33 16.5 3.66 25 4 C23.02 6.31 21.04 8.62 19 11 C18.27039062 12.01964844 17.54078125 13.03929688 16.7890625 14.08984375 C13.45742669 18.47389159 10.65629244 22.05546614 5.0078125 22.84375 C-2.03018266 23.20639171 -7.28584807 22.57474832 -13 18 C-14.91303463 14.9225095 -15.00253398 13.14190292 -14.9375 9.5 C-13.8050714 5.27226658 -12.39998114 3.70453045 -9 1 C-5.60294819 -0.82280829 -3.65004831 -1.35186974 0 0 Z " fill="#00EF1F" transform="translate(23,58)"/>
<path d="M0 0 C0 7.26 0 14.52 0 22 C-8.35135135 22 -8.35135135 22 -13 18 C-14.91303463 14.9225095 -15.00253398 13.14190292 -14.9375 9.5 C-13.8050714 5.27226658 -12.39998114 3.70453045 -9 1 C-5.17475402 -1.05257101 -4.3845468 -1.0961367 0 0 Z " fill="#01D351" transform="translate(23,58)"/>
<path d="M0 0 C0 6.27 0 12.54 0 19 C1.65 19.33 3.3 19.66 5 20 C3.375 20.75 3.375 20.75 1 21 C-2.30510686 19.28134443 -4.45766773 17.87244756 -6.4375 14.6875 C-7.19653674 11.06099111 -6.96006591 8.58424608 -6 5 C-1.74468085 0 -1.74468085 0 0 0 Z " fill="#44B96E" transform="translate(15,59)"/>
<path d="M0 0 C1.98 0.66 3.96 1.32 6 2 C6 7.28 6 12.56 6 18 C4.35 18.33 2.7 18.66 1 19 C0 18 0 18 -0.11352539 16.23413086 C-0.10828857 15.48526611 -0.10305176 14.73640137 -0.09765625 13.96484375 C-0.09443359 13.15595703 -0.09121094 12.34707031 -0.08789062 11.51367188 C-0.07951172 10.66353516 -0.07113281 9.81339844 -0.0625 8.9375 C-0.05798828 8.08349609 -0.05347656 7.22949219 -0.04882812 6.34960938 C-0.03700373 4.23304337 -0.01906769 2.11651315 0 0 Z " fill="#00EA39" transform="translate(22,61)"/>
<path d="M0 0 C1.65 0 3.3 0 5 0 C5.02684679 2.64590014 5.04676357 5.29153096 5.0625 7.9375 C5.07087891 8.69224609 5.07925781 9.44699219 5.08789062 10.22460938 C5.09652441 12.14994313 5.05224333 14.07535581 5 16 C4.67 16.33 4.34 16.66 4 17 C2.35 17 0.7 17 -1 17 C-0.67 11.39 -0.34 5.78 0 0 Z " fill="#00F42D" transform="translate(28,63)"/>
<path d="M0 0 C0.66 0.33 1.32 0.66 2 1 C2 7.6 2 14.2 2 21 C1.01 20.67 0.02 20.34 -1 20 C-1.02888514 16.85418577 -1.04675923 13.70840531 -1.0625 10.5625 C-1.07087891 9.66466797 -1.07925781 8.76683594 -1.08789062 7.84179688 C-1.09111328 6.98779297 -1.09433594 6.13378906 -1.09765625 5.25390625 C-1.10551147 4.06776733 -1.10551147 4.06776733 -1.11352539 2.85766602 C-1 1 -1 1 0 0 Z " fill="#08C960" transform="translate(16,58)"/>
<path d="M0 0 C4 4 4 4 4.171875 7.453125 C3.96304687 9.33257812 3.96304687 9.33257812 3.75 11.25 C3.62109375 12.51328125 3.4921875 13.7765625 3.359375 15.078125 C3.24078125 16.04234375 3.1221875 17.0065625 3 18 C2.01 18 1.02 18 0 18 C0 12.06 0 6.12 0 0 Z " fill="#00DF43" transform="translate(22,61)"/>
<path d="M0 0 C0.33 0 0.66 0 1 0 C1.04898437 0.90363281 1.09796875 1.80726562 1.1484375 2.73828125 C1.22320312 3.91777344 1.29796875 5.09726563 1.375 6.3125 C1.44460938 7.48425781 1.51421875 8.65601562 1.5859375 9.86328125 C1.78613747 13.15699887 1.78613747 13.15699887 4 16 C1.3043319 15.01158836 0.18376689 14.30627815 -1.3125 11.8125 C-2.32251212 7.68063225 -1.91103599 3.82207198 0 0 Z " fill="#6EAB80" transform="translate(10,62)"/>
</svg>
