<svg width="160" height="125" viewBox="0 0 160 125" fill="none" xmlns="http://www.w3.org/2000/svg">
<circle cx="79.94" cy="57.8842" r="57.6662" fill="#0085F2"/>
<path fill-rule="evenodd" clip-rule="evenodd" d="M66.3 18.9541C70.1867 16.9741 74.7333 15.9841 79.94 15.9841C85.1467 15.9841 89.6567 16.9741 93.47 18.9541C97.3567 20.9341 100.363 23.7575 102.49 27.4241C103.188 28.6032 103.771 29.8494 104.24 31.1627C104.738 32.5575 105.107 34.028 105.346 35.5741C105.569 37.0089 105.68 38.5089 105.68 40.0741V74.3941C105.68 77.7035 105.2 80.7387 104.24 83.4995C103.796 84.7764 103.249 85.9946 102.6 87.1541C101.177 89.6451 99.3303 91.7308 97.0612 93.4112C96.0569 94.1549 94.9699 94.8192 93.8 95.4041L107.11 117.184H91.6L80.2928 98.4759C80.1779 98.4814 80.0603 98.4841 79.94 98.4841C74.7333 98.4841 70.1867 97.4941 66.3 95.5141C62.4867 93.5341 59.5167 90.7108 57.39 87.0441C56.6922 85.841 56.1088 84.5786 55.64 83.2571C54.68 80.551 54.2 77.5967 54.2 74.3941V40.0741C54.2 38.507 54.3082 37.007 54.5245 35.5741C54.7639 33.9887 55.1357 32.4855 55.64 31.0645C56.1088 29.7433 56.6922 28.4932 57.39 27.3141C59.5167 23.7208 62.4867 20.9341 66.3 18.9541ZM49.5125 27.4891L0.23999 49.8759V71.7713L55.64 96.8217V96.2453C57.7769 98.4347 60.2632 100.267 63.0743 101.727L63.0984 101.739L63.1225 101.751C67.137 103.797 71.5509 104.951 76.2602 105.337L87.6516 124.184H119.591L103.226 97.405C103.573 97.0939 103.911 96.7741 104.24 96.4457V96.8432L159.64 71.6723V49.777L110.32 27.4756C109.81 26.2435 109.215 25.0456 108.53 23.8853C105.711 19.0373 101.702 15.2974 96.6713 12.729C91.6777 10.142 86.0243 8.98413 79.94 8.98413C73.8411 8.98413 68.1665 10.1473 63.1225 12.7168L63.0984 12.7292L63.0743 12.7417C58.1345 15.3065 54.1796 18.9948 51.366 23.7489C50.6522 24.9549 50.0358 26.203 49.5125 27.4891ZM7.23999 54.3841V67.2541L48.64 85.9741V73.6441L23.8 62.7541C22.7279 62.2717 21.6079 61.885 20.44 61.5941C20.3007 61.5594 20.1607 61.5261 20.02 61.4941C18.7 61.1341 17.65 60.8941 16.87 60.7741C17.65 60.6541 18.7 60.4141 20.02 60.0541C20.137 60.0222 20.2535 59.9896 20.3695 59.9563C20.3948 59.949 20.4201 59.9417 20.4454 59.9344C21.6113 59.5959 22.7295 59.1858 23.8 58.7041L48.64 47.8141V35.5741L7.23999 54.3841ZM47.2 56.0886L36.615 60.7291L47.2 65.3697V56.0886ZM111.24 35.5741L152.64 54.2941V67.1641L111.24 85.9741V73.7341L136.08 62.8441C137.159 62.3588 138.286 61.9461 139.461 61.6061C139.485 61.5993 139.509 61.5925 139.532 61.5857C139.641 61.5545 139.75 61.524 139.86 61.4941C141.18 61.1341 142.23 60.8941 143.01 60.7741C142.23 60.6541 141.18 60.4441 139.86 60.1441C139.726 60.1077 139.594 60.0704 139.461 60.0321C138.286 59.6922 137.159 59.2795 136.08 58.7941L111.24 47.9041V35.5741ZM112.68 56.1786V65.4597L123.265 60.8191L112.68 56.1786ZM79.94 78.7241C82.3644 78.7241 83.0674 78.0963 83.2577 77.8986C83.559 77.5858 84.16 76.7521 84.16 74.3941V40.0741C84.16 37.6666 83.5381 36.8518 83.2402 36.5539C82.8905 36.2041 82.1067 35.6341 79.94 35.6341C77.7733 35.6341 76.9895 36.2041 76.6397 36.5539C76.3419 36.8517 75.72 37.6666 75.72 40.0741V74.3941C75.72 76.7521 76.321 77.5858 76.6222 77.8986C76.8126 78.0963 77.5156 78.7241 79.94 78.7241ZM88.3 82.7541C86.3933 84.7341 83.6067 85.7241 79.94 85.7241C76.2733 85.7241 73.4867 84.7341 71.58 82.7541C69.6733 80.7741 68.72 77.9875 68.72 74.3941V40.0741C68.72 36.4075 69.71 33.5841 71.69 31.6041C73.67 29.6241 76.42 28.6341 79.94 28.6341C83.46 28.6341 86.21 29.6241 88.19 31.6041C90.17 33.5841 91.16 36.4075 91.16 40.0741V74.3941C91.16 77.9875 90.2067 80.7741 88.3 82.7541Z" fill="#0085F2"/>
<mask id="mask0_31_340" style="mask-type:alpha" maskUnits="userSpaceOnUse" x="0" y="0" width="160" height="125">
<path fill-rule="evenodd" clip-rule="evenodd" d="M134.183 38.2661L159.64 49.777V71.6724L131.017 84.6771C126.049 94.1297 118.533 102.034 109.382 107.478L119.591 124.184H87.6516L82.4022 115.499C81.5857 115.533 80.7649 115.55 79.9399 115.55C57.783 115.55 38.5447 103.054 28.8881 84.7252L0.23999 71.7712V49.8759L25.6779 38.3183C33.6904 16.1007 54.9604 0.218018 79.9399 0.218018C104.9 0.218018 126.156 16.0758 134.183 38.2661Z" fill="#0085F2"/>
</mask>
<g mask="url(#mask0_31_340)">
<rect x="26.3251" y="-135.707" width="171.249" height="181.201" transform="rotate(45 26.3251 -135.707)" fill="#10DF1A"/>
<path fill-rule="evenodd" clip-rule="evenodd" d="M91.5999 117.184L80.2928 98.4759C80.1779 98.4814 80.0603 98.4841 79.9399 98.4841C74.7333 98.4841 70.1866 97.4941 66.3 95.5141C62.4866 93.5341 59.5166 90.7108 57.39 87.0441C55.2633 83.3775 54.2 79.1608 54.2 74.3941V40.0741C54.2 35.1608 55.2633 30.9075 57.39 27.3141C59.5166 23.7208 62.4866 20.9341 66.3 18.9541C70.1866 16.9741 74.7333 15.9841 79.9399 15.9841C85.1466 15.9841 89.6566 16.9741 93.4699 18.9541C97.3566 20.9341 100.363 23.7575 102.49 27.4241C104.617 31.0175 105.68 35.2341 105.68 40.0741V74.3941C105.68 79.2341 104.653 83.4875 102.6 87.1541C100.547 90.7475 97.6133 93.4975 93.7999 95.4041L107.11 117.184H91.5999ZM79.9399 85.7241C83.6066 85.7241 86.3933 84.7341 88.2999 82.7541C90.2066 80.7741 91.1599 77.9875 91.1599 74.3941V40.0741C91.1599 36.4075 90.1699 33.5841 88.1899 31.6041C86.2099 29.6241 83.4599 28.6341 79.9399 28.6341C76.4199 28.6341 73.6699 29.6241 71.6899 31.6041C69.7099 33.5841 68.72 36.4075 68.72 40.0741V74.3941C68.72 77.9875 69.6733 80.7741 71.5799 82.7541C73.4866 84.7341 76.2733 85.7241 79.9399 85.7241ZM48.64 85.9741L7.23999 67.2541V54.3841L48.64 35.5741V47.8141L23.8 58.7041C22.6 59.2441 21.34 59.6941 20.02 60.0541C18.7 60.4141 17.65 60.6541 16.87 60.7741C17.65 60.8941 18.7 61.1341 20.02 61.4941C21.34 61.7941 22.6 62.2141 23.8 62.7541L48.64 73.6441V85.9741ZM111.24 73.7341V85.9741L152.64 67.1641V54.2941L111.24 35.5741V47.9041L136.08 58.7941C137.28 59.3341 138.54 59.7841 139.86 60.1441C141.18 60.4441 142.23 60.6541 143.01 60.7741C142.23 60.8941 141.18 61.1341 139.86 61.4941C138.54 61.8541 137.28 62.3041 136.08 62.8441L111.24 73.7341Z" fill="#E5F3FF"/>
</g>
</svg>
