<svg width="158" height="158" viewBox="0 0 158 158" fill="none" xmlns="http://www.w3.org/2000/svg">
<path fill-rule="evenodd" clip-rule="evenodd" d="M105.577 152.97C97.2219 155.986 88.2105 157.63 78.8151 157.63C35.2867 157.63 0 122.343 0 78.8151C0 35.2867 35.2867 0 78.8151 0C122.343 0 157.63 35.2867 157.63 78.8151C157.63 88.2105 155.986 97.2219 152.97 105.577C155.934 110.686 157.63 116.621 157.63 122.952C157.63 142.104 142.104 157.63 122.952 157.63C116.621 157.63 110.686 155.934 105.577 152.97ZM99.5186 97.3894C103.94 92.4648 106.629 85.954 106.629 78.8151C106.629 63.4538 94.1764 51.001 78.8151 51.001C63.4538 51.001 51.001 63.4538 51.001 78.8151C51.001 94.1764 63.4538 106.629 78.8151 106.629C85.954 106.629 92.4648 103.94 97.3894 99.5187C98.0681 98.7786 98.7786 98.0681 99.5186 97.3894Z" fill="#010203"/>
<mask id="mask0_20_317" style="mask-type:alpha" maskUnits="userSpaceOnUse" x="0" y="0" width="158" height="158">
<path fill-rule="evenodd" clip-rule="evenodd" d="M105.577 152.97C97.2219 155.986 88.2105 157.63 78.8151 157.63C35.2867 157.63 0 122.343 0 78.8151C0 35.2867 35.2867 0 78.8151 0C122.343 0 157.63 35.2867 157.63 78.8151C157.63 88.2105 155.986 97.2219 152.97 105.577C155.934 110.686 157.63 116.621 157.63 122.952C157.63 142.104 142.104 157.63 122.952 157.63C116.621 157.63 110.686 155.934 105.577 152.97ZM99.5186 97.3894C103.94 92.4648 106.629 85.954 106.629 78.8151C106.629 63.4538 94.1764 51.001 78.8151 51.001C63.4538 51.001 51.001 63.4538 51.001 78.8151C51.001 94.1764 63.4538 106.629 78.8151 106.629C85.954 106.629 92.4648 103.94 97.3894 99.5187C98.0681 98.7786 98.7786 98.0681 99.5186 97.3894Z" fill="#010203"/>
</mask>
<g mask="url(#mask0_20_317)">
<rect x="30.3944" y="47.2815" width="13" height="80.8472" rx="6.5" fill="#00325B"/>
<rect x="30.3944" y="87.7141" width="13" height="40.4146" rx="6.5" fill="#005193"/>
<rect x="30.3944" y="115.076" width="13" height="13.0526" rx="6.5" fill="#0085F2"/>
<rect x="44.3944" y="-25.7185" width="13" height="80.8472" rx="6.5" fill="#00325B"/>
<rect x="44.3944" y="14.7141" width="13" height="40.4146" rx="6.5" fill="#005193"/>
<rect x="44.3944" y="42.0761" width="13" height="13.0526" rx="6.5" fill="#0085F2"/>
<rect x="58.3944" y="94.2815" width="13" height="80.8472" rx="6.5" fill="#00325B"/>
<rect x="58.3944" y="134.714" width="13" height="40.4146" rx="6.5" fill="#005193"/>
<rect x="72.3944" y="-45.7185" width="13" height="80.8472" rx="6.5" fill="#00325B"/>
<rect x="72.3944" y="-5.28591" width="13" height="40.4146" rx="6.5" fill="#005193"/>
<rect x="72.3944" y="22.0761" width="13" height="13.0526" rx="6.5" fill="#0085F2"/>
<rect x="86.3944" y="50.2815" width="13" height="80.8472" rx="6.5" fill="#00325B"/>
<rect x="86.3944" y="90.7141" width="13" height="40.4146" rx="6.5" fill="#005193"/>
<rect x="86.3944" y="118.076" width="13" height="13.0526" rx="6.5" fill="#0085F2"/>
<rect x="100.394" y="72.2815" width="13" height="80.8472" rx="6.5" fill="#00325B"/>
<rect x="100.394" y="112.714" width="13" height="40.4146" rx="6.5" fill="#005193"/>
<rect x="100.394" y="140.076" width="13" height="13.0526" rx="6.5" fill="#0085F2"/>
<rect x="114.394" y="-6.71852" width="13" height="80.8472" rx="6.5" fill="#00325B"/>
<rect x="114.394" y="33.7141" width="13" height="40.4146" rx="6.5" fill="#005193"/>
<rect x="114.394" y="61.0761" width="13" height="13.0526" rx="6.5" fill="#0085F2"/>
<rect x="128.394" y="10.2815" width="13" height="80.8472" rx="6.5" fill="#00325B"/>
<rect x="128.394" y="50.7141" width="13" height="40.4146" rx="6.5" fill="#005193"/>
<rect x="128.394" y="78.0761" width="13" height="13.0526" rx="6.5" fill="#0085F2"/>
<rect x="128.394" y="120.281" width="13" height="80.8472" rx="6.5" fill="#00325B"/>
<rect x="148.394" y="55.2815" width="13" height="80.8472" rx="6.5" fill="#00325B"/>
<rect x="148.394" y="95.7141" width="13" height="40.4146" rx="6.5" fill="#005193"/>
<rect x="148.394" y="123.076" width="13" height="13.0526" rx="6.5" fill="#0085F2"/>
<rect x="2.39441" y="55.2815" width="13" height="80.8472" rx="6.5" fill="#00325B"/>
<rect x="2.39441" y="95.7141" width="13" height="40.4146" rx="6.5" fill="#005193"/>
<rect x="2.39441" y="123.076" width="13" height="13.0526" rx="6.5" fill="#0085F2"/>
<rect x="44.3944" y="125.281" width="13" height="80.8472" rx="6.5" fill="#00325B"/>
<rect x="16.3944" y="21.8066" width="13" height="80.8472" rx="6.5" fill="#00325B"/>
<rect x="16.3944" y="62.2392" width="13" height="40.4146" rx="6.5" fill="#005193"/>
<rect x="16.3944" y="89.6012" width="13" height="13.0526" rx="6.5" fill="#0085F2"/>
</g>
</svg>
