<svg width="187" height="135" viewBox="0 0 187 135" fill="none" xmlns="http://www.w3.org/2000/svg">
<circle cx="90.7506" cy="67.3677" r="67.3677" fill="#0085F2"/>
<path fill-rule="evenodd" clip-rule="evenodd" d="M0 78.0591L54.5 102.703V96.1955C55.6477 97.049 56.8726 97.8121 58.1675 98.4836L58.2328 98.5174L58.2986 98.5503C60.7566 99.7793 63.3445 100.606 66.0108 101.09L74.1008 114.381H109.311L106.082 109.131H120.028L131.537 77.6619V102.733L186.037 77.9713V54.3507L146.646 36.5544L153.265 18.631H120.305L100.221 73.3537V51.881C100.221 47.0324 99.1044 42.3072 96.5226 38.0728C94.0224 33.9221 90.5031 30.7314 86.2085 28.5697C81.8644 26.3323 77.1051 25.381 72.2207 25.381C67.3364 25.381 62.5771 26.3323 58.2332 28.5696C56.9157 29.2327 55.6686 29.9915 54.5 30.8451V29.6788L0 54.4408V78.0591ZM75.1691 81.4042C75.1928 81.3966 75.2165 81.3888 75.24 81.3809C75.2165 81.3888 75.1928 81.3966 75.1691 81.4042ZM141.278 66.1873L134.665 69.1105L136.515 64.0505L141.278 66.1873ZM165.618 65.7223C165.619 65.7226 165.62 65.7229 165.622 65.7232ZM20.9414 65.5245C20.9413 65.5245 20.9412 65.5245 20.9411 65.5246L20.9413 65.5245L20.9414 65.5245ZM20.868 65.5454C20.7955 65.566 20.7229 65.5862 20.65 65.606C20.7229 65.5862 20.7955 65.566 20.8679 65.5454L20.868 65.5454ZM165.548 65.7057L165.551 65.7063C165.572 65.7114 165.593 65.7164 165.614 65.7214C165.592 65.7162 165.57 65.711 165.548 65.7057Z" fill="#0085F2"/>
<mask id="mask0_25_128" style="mask-type:alpha" maskUnits="userSpaceOnUse" x="0" y="0" width="187" height="135">
<circle cx="90.7595" cy="67.3677" r="67.3677" fill="#0085F2"/>
<path fill-rule="evenodd" clip-rule="evenodd" d="M0 78.0591L54.5 102.703V96.1955C55.6477 97.049 56.8726 97.8121 58.1675 98.4836L58.2328 98.5174L58.2986 98.5503C60.7566 99.7793 63.3445 100.606 66.0108 101.09L74.1008 114.381H109.311L106.082 109.131H120.028L131.537 77.6619V102.733L186.037 77.9713V54.3507L146.646 36.5544L153.265 18.631H120.305L100.221 73.3537V51.881C100.221 47.0324 99.1044 42.3072 96.5226 38.0728C94.0224 33.9221 90.5031 30.7314 86.2085 28.5697C81.8644 26.3323 77.1051 25.381 72.2207 25.381C67.3364 25.381 62.5771 26.3323 58.2332 28.5696C56.9157 29.2327 55.6686 29.9915 54.5 30.8451V29.6788L0 54.4408V78.0591ZM75.1691 81.4042C75.1928 81.3966 75.2165 81.3888 75.24 81.3809C75.2165 81.3888 75.1928 81.3966 75.1691 81.4042ZM141.278 66.1873L134.665 69.1105L136.515 64.0505L141.278 66.1873ZM165.618 65.7223C165.619 65.7226 165.62 65.7229 165.622 65.7232ZM20.9414 65.5245C20.9413 65.5245 20.9412 65.5245 20.9411 65.5246L20.9413 65.5245L20.9414 65.5245ZM20.868 65.5454C20.7955 65.566 20.7229 65.5862 20.65 65.606C20.7229 65.5862 20.7955 65.566 20.8679 65.5454L20.868 65.5454ZM165.548 65.7057L165.551 65.7063C165.572 65.7114 165.593 65.7164 165.614 65.7214C165.592 65.7162 165.57 65.711 165.548 65.7057Z" fill="#0085F2"/>
</mask>
<g mask="url(#mask0_25_128)">
<rect x="-150.29" y="-32.3308" width="233.972" height="241.612" transform="rotate(-46.2539 -150.29 -32.3308)" fill="#10DF1A"/>
<path d="M44.4912 87.206L9.99115 71.606V60.881L44.4912 45.206V55.406L23.7912 64.481C22.7912 64.931 21.7412 65.306 20.6412 65.606C19.5412 65.906 18.6662 66.106 18.0161 66.206C18.6662 66.306 19.5412 66.506 20.6412 66.806C21.7412 67.056 22.7912 67.406 23.7912 67.856L44.4912 76.931V87.206ZM79.7119 104.381L71.3119 90.581L73.6369 91.556C73.4369 91.556 73.2119 91.556 72.9619 91.556C72.7119 91.606 72.4619 91.631 72.2119 91.631C68.6119 91.631 65.4619 90.956 62.7619 89.606C60.0619 88.206 57.9619 86.256 56.4619 83.756C54.9619 81.256 54.2119 78.381 54.2119 75.131V51.881C54.2119 48.531 54.9619 45.631 56.4619 43.181C57.9619 40.731 60.0619 38.831 62.7619 37.481C65.4619 36.081 68.6119 35.381 72.2119 35.381C75.8119 35.381 78.9619 36.081 81.6619 37.481C84.3619 38.831 86.4619 40.756 87.9619 43.256C89.4619 45.706 90.2119 48.581 90.2119 51.881V75.131C90.2119 78.381 89.5119 81.256 88.1119 83.756C86.7619 86.206 84.7869 88.081 82.1869 89.381L91.4119 104.381H79.7119ZM72.2119 81.806C74.5619 81.806 76.2619 81.231 77.3119 80.081C78.4119 78.931 78.9619 77.281 78.9619 75.131V51.881C78.9619 49.681 78.3869 48.006 77.2369 46.856C76.0869 45.706 74.4119 45.131 72.2119 45.131C70.0619 45.131 68.3869 45.706 67.1869 46.856C66.0369 48.006 65.4619 49.681 65.4619 51.881V75.131C65.4619 77.281 66.0119 78.931 67.1119 80.081C68.2119 81.231 69.9119 81.806 72.2119 81.806ZM101.403 99.131L127.278 28.631H138.903L134.028 41.831L176.028 60.806V71.531L141.528 87.206V77.006L162.228 67.856C163.278 67.406 164.453 67.056 165.753 66.806C167.103 66.506 168.178 66.331 168.978 66.281C168.178 66.181 167.103 66.006 165.753 65.756C164.453 65.456 163.278 65.081 162.228 64.631L130.803 50.531L113.028 99.131H101.403Z" fill="#E5EFF8"/>
</g>
</svg>
